<?xml version="1.0" encoding="UTF-8" standalone="no"?>
<svg
   version="1.2"
   x="0px"
   y="0px"
   width="0.44705209in"
   height="0.10416666in"
   xml:space="preserve"
   id="svg3"
   xmlns="http://www.w3.org/2000/svg"
   xmlns:svg="http://www.w3.org/2000/svg"><defs
   id="defs3" />

<g
   id="breadboard"
   style="display:inline">

<rect
   y="3.5899999"
   fill="#868584"
   width="2.5"
   height="2.9100001"
   id="connector0pin"
   x="0" />
<rect
   x="40.417"
   y="3.5899999"
   fill="#868584"
   width="2.5"
   height="2.9100001"
   id="connector1pin" />

<rect
   y="3.5899999"
   fill="#868584"
   width="42.917"
   height="2.9100001"
   id="rect1"
   x="0" />
<path
   id="Body_1_"
   fill="#d9b578"
   d="M 15.347,0.414 C 14.847,0.186 13.987,0 13.437,0 h -3 c -1,0 -2,1 -2,2 v 6 c 0,1 1,2 2,2 h 3 c 0.55,0 1.409,-0.187 1.91,-0.414 L 15.45,9.539 c 0.501,-0.228 1.36,-0.414 1.91,-0.414 h 8.155 c 0.549,0 1.408,0.187 1.91,0.414 l 0.104,0.047 c 0.5,0.228 1.359,0.414 1.91,0.414 h 3 c 1,0 2,-1 2,-2 V 2 c 0,-1 -1,-2 -2,-2 h -3 c -0.551,0 -1.41,0.186 -1.91,0.413 L 27.425,0.46 c -0.5,0.228 -1.361,0.413 -1.91,0.413 H 17.36 c -0.55,0 -1.41,-0.186 -1.91,-0.414 z" />
<path
   fill="#893e19"
   d="m 13.62,0.006 c 0.341,0 0.817,0.122 0.817,0.122 v 9.744 c 0,0 -0.488,0.113 -0.709,0.113 -0.221,0 -2.291,0.014 -2.291,0.014 V 0 c 0,0 1.842,0.006 2.183,0.006 z"
   id="path1" />
<path
   d="m 21.437,0.874 v 8.251 c -1.000016,0.0014 -2.000007,9.826e-4 -3,-0.005 V 0.864 c 0.99991,0.0147662 2.000006,0.009429 3,0.01 z"
   id="path2" />
<rect
   x="23.438"
   y="0.87400001"
   fill="#c3111d"
   width="3"
   height="8.2510004"
   id="rect2" />

<path
   id="Reflex_1_"
   opacity="0.4"
   fill="#ffffff"
   d="m 8.937,4.5 c 0,0 0,-2 0,-2.5 0,-0.5 0.5,-1.5 1.5,-1.5 1,0 2,0 3,0 1,0 3,1 3.5,1 0.5,0 8.001,0 9.001,0 1,0 2.5,-1 3.5,-1 0.042,0 0.312,0 0.676,0 0.78,0 1.991,0 2.324,0 0.5,0 1.5,0.5 1.5,1 0,1.5 0.094,-0.5 -2,-0.5 -1.5,0 -1.5,0 -2.5,0 -1,0 -2.5,1 -3.5,1 -1,0 -8.001,0 -9.001,0 -1,0 -2.5,-1 -3.5,-1 -1,0 -2,0 -3,0 -0.5,0 -1,0.5 -1,1 0,0.5 0,2 -0.5,2.5 z" />
<path
   id="Shaddow_1_"
   opacity="0.4"
   d="m 34.438,5.5 c 0,0 0,2 0,2.5 0,1 -1,2 -2,2 -1,0 -2,0 -3,0 -1.259,0 -2.806,-0.891 -3.728,-0.891 -0.5,0 -7.273,0.016 -8.273,0.016 -1.414,0 -2.633,0.875 -3.633,0.875 -0.133,0 -2.88,0 -3.367,0 -0.676,0 -2,-0.781 -2,-2 0,-0.09 0,-0.402 0,-0.5 0,-1.5 0.405,1.5 2.5,1.5 1.5,0 1.5,0 2.5,0 1,0 2.5,-1 3.5,-1 1,0 8.001,0 9.001,0 1,0 2.5,1 3.5,1 1,0 1,0 2,0 0.5,0 2,0 2,-1.5 0,-0.5 0.5,-2 1,-2 z" />



  </g>
</svg>
